# xmcd
#
# Track frame offsets:
#	150
#	12267
#	63889
#	101093
#	135347
#	140215
#	155036
#	183365
#	207700
#
# Disc length: 3382 seconds
#
# Revision: 1
# Processed by: cddbd v1.5.2PL0 Copyright (c) Steve Scherf et al.
# Submitted via: audiograbber 1.83.01
#
DISCID=830d3409
DTITLE=Grateful Dead - 72-07-21 Paramount Northwest Theatre, Seattle WA
DYEAR=1900
DGENRE=
TTITLE0=Tuning
TTITLE1=Playing In The Band
TTITLE2=Tennessee Jed
TTITLE3=Casey Jones
TTITLE4=Weather Report Suite Prelude
TTITLE5=Me and My Uncle
TTITLE6=Deal
TTITLE7=Jack Straw
TTITLE8=He's Gone
EXTD=
EXTT0=
EXTT1=
EXTT2=
EXTT3=
EXTT4=
EXTT5=
EXTT6=
EXTT7=
EXTT8=
PLAYORDER=
